# xmcd
#
# Track frame offsets: 
#        300
#        11585
#        23898
#        36915
#        47652
#        60125
#        72150
#        83425
#        96115
#        109979
#        121534
#        136220
#        148416
#        161573
#        173876
#        185383
#        198505
#        212246
#        224795
#        234791
#        246077
#        256870
#        266987
#        277063
#
# Disc length: 3854 seconds
#
# Revision: 0
# Processed by: cddbd v1.5.2PL0 Copyright (c) Steve Scherf et al.
# Submitted via: ExactAudioCopy v0.99pb5
#
DISCID=5e0f0a18
DTITLE=Hidehiko Matsumoto and Yoshio Kimura - Festival Of Enka
DYEAR=1969
DGENRE=Instrumental
TTITLE0=Inochi Azukemasu
TTITLE1=Keiko No Yume Wa Yoru Hiraku
TTITLE2=Onna No Blues
TTITLE3=Shinjuku No Onna
TTITLE4=Neongai No Onna
TTITLE5=Inochi Girigiri
TTITLE6=Uwasa No Onna
TTITLE7=Awazuni Aishite
TTITLE8=Ai No Tabiji O
TTITLE9=Nagasaki Wa Kyo Mo Ame Datta
TTITLE10=Wakareame
TTITLE11=Nagasaki Shijo
TTITLE12=Hatoba Onna No Blues
TTITLE13=Koi Hitosuji
TTITLE14=Onna
TTITLE15=Hana To Cho
TTITLE16=Inochi Karetemo
TTITLE17=Minatomachi Blues
TTITLE18=Yoru No Setouchi
TTITLE19=Kokusaisen Machiaishitsu
TTITLE20=Ikebukuro No Yoru
TTITLE21=Nagasaki Blues
TTITLE22=Isezakicho Blues
TTITLE23=Kokotsu No Blues
EXTD=
EXTT0=
EXTT1=
EXTT2=
EXTT3=
EXTT4=
EXTT5=
EXTT6=
EXTT7=
EXTT8=
EXTT9=
EXTT10=
EXTT11=
EXTT12=
EXTT13=
EXTT14=
EXTT15=
EXTT16=
EXTT17=
EXTT18=
EXTT19=
EXTT20=
EXTT21=
EXTT22=
EXTT23=
PLAYORDER=
